<svg xmlns="http://www.w3.org/2000/svg" version="1.1" xmlns:xlink="http://www.w3.org/1999/xlink" xmlns:svgjs="http://svgjs.dev/svgjs" width="2000" height="1500" viewBox="0 0 2000 1500"><rect width="2000" height="1500" fill="#2d2042"></rect><g transform="matrix(0.45146726862302483,0,0,0.45146726862302483,549.1747694057103,250.404858299595)"><svg viewBox="0 0 223 247" data-background-color="#2d2042" preserveAspectRatio="xMidYMid meet" height="2215" width="2000" xmlns="http://www.w3.org/2000/svg" xmlns:xlink="http://www.w3.org/1999/xlink"><g id="tight-bounds" transform="matrix(1,0,0,1,-0.1585657370517879,-0.0999999999999801)"><svg viewBox="0 0 223.31713147410355 247.19999999999996" height="247.19999999999996" width="223.31713147410355"><g><svg viewBox="0 0 223.31713147410355 247.19999999999996" height="247.19999999999996" width="223.31713147410355"><g><svg viewBox="0 0 223.31713147410355 247.19999999999996" height="247.19999999999996" width="223.31713147410355"><g><svg viewBox="0 0 223.31713147410355 247.19999999999996" height="247.19999999999996" width="223.31713147410355"><g><svg viewBox="0 0 223.31713147410355 247.19999999999996" height="247.19999999999996" width="223.31713147410355"><g id="textblocktransform"><svg viewBox="0 0 223.31713147410355 247.19999999999996" height="247.19999999999996" width="223.31713147410355" id="textblock"><g><svg viewBox="0 0 223.31713147410355 247.19999999999996" height="247.19999999999996" width="223.31713147410355"><g transform="matrix(1,0,0,1,0,0)"><svg width="223.31713147410355" viewBox="-2 -40.5 46.349998474121094 51.20000076293945" height="247.19999999999996" data-palette-color="#845ec2"><path d="M17.95 6.7L17.95 6.7Q13.1 6.7 9.98 5.68 6.85 4.65 5.1 2.95 3.35 1.25 2.68-0.95 2-3.15 2-5.5L2-5.5 2-28.75Q2-29.4 2.18-29.85 2.35-30.3 2.7-30.6L2.7-30.6 9.15-36.05Q9.4-36.25 9.83-36.38 10.25-36.5 10.75-36.5L10.75-36.5 18.6-36.5Q19.8-36.5 20.35-35.95 20.9-35.4 20.9-34.2L20.9-34.2 20.9-11.4Q20.9-10.95 21.05-10.58 21.2-10.2 21.7-10L21.7-10 21.7-28.75Q21.7-29.4 21.85-29.85 22-30.3 22.3-30.55L22.3-30.55 22.35-30.6 28.85-36.05Q29.1-36.25 29.5-36.38 29.9-36.5 30.45-36.5L30.45-36.5 38.05-36.5Q39.25-36.5 39.8-35.95 40.35-35.4 40.35-34.2L40.35-34.2 40.35-9.45Q40.35-7.15 39.7-5.2 39.05-3.25 37.35-1.85L37.35-1.85 30.85 3.55Q29.1 5.05 26 5.88 22.9 6.7 17.95 6.7ZM39.85-9.45L39.85-9.45 39.85-34.2Q39.85-35.15 39.43-35.58 39-36 38.05-36L38.05-36 30.45-36Q29.5-36 29.08-35.58 28.65-35.15 28.65-34.2L28.65-34.2 28.65-11.4Q28.65-10.4 27.9-9.73 27.15-9.05 24.5-9.05L24.5-9.05Q21.9-9.05 21.15-9.73 20.4-10.4 20.4-11.4L20.4-11.4 20.4-34.2Q20.4-35.15 19.98-35.58 19.55-36 18.6-36L18.6-36 10.75-36Q9.8-36 9.38-35.58 8.95-35.15 8.95-34.2L8.95-34.2 8.95-9.45Q8.95-7.15 9.63-5.28 10.3-3.4 12.03-2.08 13.75-0.75 16.75 0 19.75 0.75 24.4 0.75L24.4 0.75Q29.05 0.75 32.05 0 35.05-0.75 36.77-2.08 38.5-3.4 39.18-5.28 39.85-7.15 39.85-9.45ZM14.45-10.65L14.45-31.5 14.95-31.5 14.95-10.65Q14.95-7.85 16.93-6.13 18.9-4.4 24.45-4.4L24.45-4.4Q30-4.4 32-6.13 34-7.85 34-10.65L34-10.65 34-31.5 34.5-31.5 34.5-10.65Q34.5-7.65 32.4-5.78 30.3-3.9 24.45-3.9L24.45-3.9Q18.6-3.9 16.53-5.78 14.45-7.65 14.45-10.65L14.45-10.65Z" opacity="1" transform="matrix(1,0,0,1,0,0)" fill="#845ec2" class="wordmark-text-0" data-fill-palette-color="primary" id="text-0"></path></svg></g></svg></g></svg></g></svg></g></svg></g></svg></g></svg></g><defs></defs></svg><rect width="223.31713147410355" height="247.19999999999996" fill="none" stroke="none" visibility="hidden"></rect></g></svg></g></svg>