<svg xmlns="http://www.w3.org/2000/svg" version="1.1" xmlns:xlink="http://www.w3.org/1999/xlink" xmlns:svgjs="http://svgjs.dev/svgjs" width="2000" height="1607" viewBox="0 0 2000 1607"><g transform="matrix(1,0,0,1,0,0)"><svg viewBox="0 0 448 360" data-background-color="#ffffff" preserveAspectRatio="xMidYMid meet" height="1607" width="2000" xmlns="http://www.w3.org/2000/svg" xmlns:xlink="http://www.w3.org/1999/xlink"><g id="tight-bounds" transform="matrix(1,0,0,1,0,0)"><svg viewBox="0 0 448 360" height="360" width="448"><g><svg></svg></g><g><svg viewBox="0 0 448 360" height="360" width="448"><g><path xmlns="http://www.w3.org/2000/svg" d="M193.855 44.683c1.378 0 2.494 1.116 2.495 2.494 0 1.378-1.116 2.494-2.495 2.495h-23.846l-17.167 17.167c-0.973 0.973-2.551 0.973-3.53 0-0.973-0.973-0.973-2.551 0-3.529l13.644-13.645h-40.378c-11.518 0-19.151 2.688-23.815 8.113-4.739 5.519-6.66 14.056-6.66 25.63 0 0.069 0 0.137-0.006 0.206l0.212 36.692 14.692-14.692c0.973-0.973 2.551-0.973 3.53 0 0.973 0.973 0.973 2.551 0 3.53l-18.178 18.178c0.206 35.832 0.193 71.358-0.013 107.19 25.486 25.2 50.617 50.312 75.811 75.791h25.38c1.378 0 2.494 1.116 2.495 2.495 0 1.378-1.116 2.494-2.495 2.494h-20.448l25.942 26.241 0.006-0.006c8.188 8.188 15.577 12.859 22.824 13.413 7.146 0.543 14.442-2.956 22.586-11.093l28.555-28.555h-20.722c-1.378 0-2.494-1.116-2.495-2.494 0-1.378 1.116-2.494 2.495-2.495h25.711l16.625-16.625c0.973-0.973 2.551-0.973 3.529 0 0.973 0.973 0.973 2.551 0 3.53l-13.101 13.102h40.377c11.518 0 19.151-2.688 23.815-8.113 4.739-5.519 6.66-14.056 6.66-25.63h0.013l-0.212-36.898-16.014 16.014c-0.973 0.973-2.551 0.973-3.53 0-0.973-0.973-0.973-2.551 0-3.53l19.5-19.5c-0.206-35.832-0.193-71.358 0.013-107.19-25.486-25.2-50.617-50.312-75.811-75.791h-26.147c-1.378 0-2.494-1.116-2.495-2.495 0-1.378 1.116-2.494 2.495-2.494h21.215l-25.824-26.123c-0.044-0.037-0.081-0.075-0.124-0.112-8.188-8.188-15.577-12.859-22.824-13.413-7.146-0.543-14.442 2.956-22.586 11.093l-28.555 28.555h18.858zM122.578 44.683h45.367l32.078-32.078c9.248-9.248 17.81-13.195 26.484-12.534 8.568 0.649 16.956 5.824 25.985 14.854 0.05 0.05 0.094 0.094 0.137 0.143l29.278 29.615h43.508c13.071 0 21.919 3.268 27.594 9.871 5.6 6.517 7.864 16.101 7.864 28.867 0 0.081-0.006 0.156-0.012 0.23l-0.225 39.742 28.43 28.112 0.006-0.006c9.03 9.03 14.206 17.411 14.854 25.985 0.661 8.674-3.293 17.236-12.534 26.484l-30.768 30.768 0.237 41.843h0.012c0 12.765-2.27 22.35-7.864 28.867-5.675 6.604-14.524 9.872-27.594 9.871h-45.366l-32.078 32.078c-9.248 9.248-17.81 13.195-26.484 12.534-8.568-0.649-16.956-5.824-25.985-14.854l0.006-0.006-29.421-29.758h-43.509c-13.071 0-21.919-3.268-27.594-9.872-5.6-6.517-7.864-16.101-7.863-28.866h0.012l0.231-39.972-28.293-27.969c-0.05-0.044-0.1-0.087-0.143-0.137-9.03-9.03-14.206-17.411-14.854-25.985-0.661-8.674 3.293-17.236 12.534-26.484l30.768-30.768-0.237-41.607c-0.006-0.075-0.012-0.156-0.012-0.23 0-12.765 2.27-22.35 7.864-28.867 5.675-6.604 14.524-9.872 27.594-9.871zM87.682 179.997l-0.274-47.724-27.276 27.276c-8.138 8.138-11.636 15.44-11.094 22.587 0.549 7.246 5.226 14.642 13.413 22.823 0.037 0.037 0.081 0.081 0.113 0.125l24.837 24.551 0.281-49.644zM92.303 241.483l-0.2 35.09h0.013c0 11.58 1.921 20.117 6.66 25.63 4.664 5.432 12.297 8.113 23.815 8.113h38.576l-33.55-33.936-35.308-34.903zM325.415 49.672h-38.575l33.549 33.936 35.308 34.902 0.2-34.884c-0.006-0.069-0.006-0.137-0.007-0.205 0-11.58-1.921-20.117-6.66-25.63-4.664-5.432-12.297-8.113-23.815-8.113zM360.599 130.352l-0.281 49.645 0.274 47.724 27.276-27.276c8.138-8.138 11.636-15.44 11.094-22.587-0.549-7.252-5.226-14.642-13.413-22.824l0.006-0.006-24.956-24.669z" fill="#755bb4" fill-rule="nonzero" stroke="none" stroke-width="1" stroke-linecap="butt" stroke-linejoin="miter" stroke-miterlimit="10" stroke-dasharray="" stroke-dashoffset="0" font-family="none" font-weight="none" font-size="none" text-anchor="none" style="mix-blend-mode: normal" data-fill-palette-color="tertiary"></path></g><g transform="matrix(1,0,0,1,134,90)"><svg viewBox="0 0 180 180" height="180" width="180"><g><svg viewBox="0 0 180 180" height="180" width="180"><g><svg viewBox="0 0 180 180" height="180" width="180"><g id="textblocktransform"><svg viewBox="0 0 180 180" height="180" width="180" id="textblock"><g><svg viewBox="0 0 180 180" height="180" width="180"><g transform="matrix(1,0,0,1,58.18019484660536,58.18019484660536)"><svg viewBox="0 0 63.63961030678928 63.63961030678928" height="63.63961030678928" width="63.63961030678928"><g><circle r="32" cx="31.81980515339464" cy="31.81980515339464" fill="#755bb4" data-fill-palette-color="accent"></circle></g></svg></g><g><path d="M23.227 63.162l-0.189 0.483c-0.639 1.635-1.553 2.932-2.741 3.891-1.19 0.965-2.559 1.533-4.105 1.706-1.541 0.176-3.165-0.07-4.874-0.738v0c-1.714-0.67-3.084-1.595-4.109-2.774-1.019-1.176-1.641-2.516-1.866-4.02-0.223-1.51-0.012-3.089 0.632-4.736v0c0.647-1.654 1.564-2.96 2.752-3.918 1.188-0.958 2.555-1.524 4.101-1.698 1.553-0.171 3.186 0.079 4.901 0.749v0c1.836 0.718 3.273 1.732 4.31 3.041 1.041 1.318 1.604 2.807 1.691 4.467v0l1.687-1.169c0.151-0.116 0.614-0.576 1.391-1.38 0.785-0.807 1.313-1.351 1.584-1.631v0l2.04 3.174zM12.933 64.373c2.128 0.832 3.839 1.116 5.135 0.851 1.287-0.261 2.198-1.078 2.735-2.453v0c0.54-1.38 0.426-2.605-0.339-3.676-0.772-1.073-2.222-2.025-4.35-2.857v0c-2.146-0.839-3.867-1.126-5.162-0.861-1.293 0.259-2.21 1.081-2.752 2.467v0c-0.537 1.374-0.419 2.594 0.356 3.661 0.772 1.073 2.231 2.029 4.377 2.868z" fill="#5c58b6" data-fill-palette-color="primary"></path><path d="M23.437 37.131c0.151-0.139 0.446-0.447 0.886-0.923 0.449-0.477 0.805-0.883 1.066-1.217v0l1.297-1.733 0.69-0.119c0.252 0.239 0.777 0.713 1.574 1.421 0.806 0.707 1.41 1.217 1.81 1.532v0l1.98 1.553c0.401 0.314 0.856 0.638 1.366 0.971 0.519 0.332 0.858 0.54 1.017 0.624v0l1.036-1.067 1.373 1.263c-0.107 0.115-0.403 0.456-0.888 1.021-0.485 0.565-1.152 1.39-2.002 2.474v0l-1.663-1.005c0.229 0.777 0.302 1.498 0.22 2.163-0.082 0.666-0.359 1.299-0.83 1.9v0c-0.882 1.125-1.844 1.743-2.887 1.855-1.033 0.111-2.112-0.275-3.236-1.156v0l-2.936-2.303c-0.17-0.133-0.485-0.339-0.946-0.617-0.467-0.283-0.784-0.465-0.952-0.548v0l-1.111 0.846-1.293-1.287c0.151-0.139 0.434-0.431 0.85-0.877 0.421-0.441 0.764-0.832 1.03-1.171v0l1.067-1.44 0.69-0.119c0.252 0.239 0.777 0.713 1.574 1.421 0.802 0.712 1.404 1.225 1.804 1.54v0l2.08 1.631c0.539 0.423 1.061 0.646 1.567 0.668 0.505 0.023 0.947-0.207 1.325-0.69v0c0.403-0.514 0.514-1.148 0.335-1.903-0.184-0.75-0.689-1.449-1.516-2.097v0l-1.772-1.39c-0.17-0.133-0.479-0.33-0.93-0.592-0.441-0.263-0.746-0.44-0.915-0.531v0l-1.467 1.189z" fill="#5c58b6" data-fill-palette-color="primary"></path><path d="M47.689 23.311c1.243 1.638 1.78 3.214 1.61 4.727-0.17 1.514-1.035 2.863-2.594 4.048v0c-1.56 1.184-3.092 1.655-4.596 1.412-1.504-0.243-2.878-1.184-4.121-2.822v0c-1.243-1.638-1.778-3.211-1.604-4.72 0.174-1.509 1.041-2.856 2.6-4.04v0c1.56-1.184 3.09-1.657 4.59-1.419 1.5 0.238 2.872 1.176 4.115 2.814zM44.562 25.685c-0.912-1.201-1.704-1.969-2.375-2.303-0.677-0.33-1.322-0.262-1.936 0.203v0c-0.614 0.466-0.852 1.069-0.716 1.81 0.141 0.737 0.668 1.706 1.58 2.907v0c0.912 1.201 1.706 1.971 2.381 2.311 0.681 0.335 1.328 0.27 1.942-0.196v0c0.614-0.466 0.852-1.069 0.716-1.81-0.141-0.737-0.672-1.711-1.592-2.922z" fill="#5c58b6" data-fill-palette-color="primary"></path><path d="M57.01 11.526c0.586-0.257 1.195-0.478 1.826-0.662 0.629-0.176 1.158-0.309 1.59-0.398 0.425-0.087 0.695-0.138 0.81-0.152v0l1.422 4.145-1.95 0.77-0.508-1.232c-0.2-0.375-0.359-0.655-0.475-0.839v0c-0.279-0.099-0.578-0.139-0.897-0.12-0.314 0.016-0.593 0.078-0.838 0.186v0c-0.735 0.323-1.133 0.886-1.195 1.69-0.052 0.807 0.224 1.901 0.831 3.282v0c1.075 2.451 2.515 3.28 4.32 2.488v0c0.46-0.202 0.865-0.44 1.216-0.715 0.347-0.281 0.61-0.528 0.787-0.741 0.174-0.205 0.282-0.341 0.323-0.409v0l1.359 0.954c-0.348 0.766-0.818 1.442-1.408 2.03-0.588 0.593-1.247 1.05-1.976 1.369v0c-1.835 0.805-3.454 0.917-4.858 0.334-1.403-0.582-2.523-1.827-3.359-3.733v0c-0.795-1.811-0.929-3.449-0.402-4.913 0.533-1.467 1.66-2.578 3.382-3.334z" fill="#5c58b6" data-fill-palette-color="primary"></path><path d="M96.888 2.163c-0.042 0.268-0.084 0.611-0.124 1.03-0.047 0.418-0.069 0.742-0.067 0.97v0l0.086 6.756c0.027 2.154-0.568 3.862-1.786 5.125-1.218 1.269-2.975 1.918-5.273 1.947v0c-2.304 0.029-4.074-0.575-5.311-1.813-1.243-1.231-1.878-2.924-1.905-5.078v0l-0.076-6.021c-0.007-0.542-0.036-1.073-0.089-1.595-0.059-0.522-0.116-0.899-0.171-1.134v0l-1.609-0.264 0.093-1.862c0.15 0.018 0.48 0.04 0.99 0.066 0.516 0.026 1.012 0.036 1.489 0.03v0c1.162-0.015 2.206-0.044 3.133-0.088 0.933-0.044 1.523-0.078 1.771-0.101v0l0.143 1.996-1.624 0.167c-0.024 0.144-0.066 0.455-0.125 0.932-0.053 0.484-0.077 0.84-0.075 1.068v0l0.088 6.962c0.015 1.149 0.343 2.091 0.986 2.827 0.643 0.736 1.532 1.097 2.668 1.083v0c1.253-0.016 2.14-0.363 2.66-1.043 0.527-0.679 0.782-1.665 0.765-2.957v0l-0.079-6.227c-0.009-0.718-0.092-1.628-0.25-2.729v0l-1.609-0.264 0.104-1.861c0.144 0.018 0.471 0.04 0.98 0.066 0.51 0.026 1.006 0.036 1.489 0.03v0c1.162-0.015 2.108-0.043 2.838-0.085 0.731-0.042 1.187-0.074 1.37-0.096v0l0.143 1.996z" fill="#5c58b6" data-fill-palette-color="primary"></path><path d="M114.501 12.339c0.125-0.175 0.261-0.41 0.408-0.708 0.142-0.305 0.252-0.556 0.329-0.751v0l-1.009-0.423 0.627-1.644c0.133 0.059 0.467 0.182 1.004 0.371 0.543 0.191 1.137 0.379 1.783 0.566v0c0.439 0.127 0.942 0.255 1.509 0.384 0.561 0.128 0.929 0.207 1.104 0.237v0l-0.392 1.712-1.192-0.212c-0.185 0.171-0.451 0.468-0.798 0.891-0.345 0.417-0.627 0.774-0.848 1.07v0l-9.012 11.84-4.598-1.652 0.794-1.799 1.294 0.424c0.376 0.109 0.735 0.161 1.076 0.158v0c0.401-0.258 0.776-0.629 1.126-1.113v0l1.292-1.757-0.712-8.552c-0.113-1.303-0.223-2.171-0.33-2.602v0l-1.41-0.692 0.61-1.587c0.198 0.091 0.625 0.259 1.282 0.502 0.655 0.25 1.305 0.468 1.951 0.655v0c0.439 0.127 0.958 0.259 1.557 0.398 0.592 0.137 0.979 0.221 1.16 0.253v0l-0.392 1.712-1.032-0.166c-0.05 0.244-0.087 0.536-0.11 0.875-0.023 0.34-0.03 0.61-0.02 0.81v0l0.135 5.114z" fill="#5c58b6" data-fill-palette-color="primary"></path><path d="M140.156 19.027c0.096-0.26 0.171-0.54 0.225-0.842 0.059-0.307 0.097-0.508 0.116-0.602v0l-0.997-1.115 1.188-1.255c0.098 0.106 0.328 0.33 0.69 0.672 0.362 0.341 0.689 0.632 0.981 0.872v0c0.896 0.74 1.737 1.412 2.523 2.019 0.781 0.602 1.286 0.985 1.515 1.149v0l-1.049 1.457-1.381-0.835c-0.062 0.076-0.172 0.234-0.33 0.477-0.158 0.242-0.27 0.45-0.337 0.623v0l-3.583 8.85 8.425-5.286c0.187-0.125 0.347-0.251 0.478-0.38 0.136-0.124 0.219-0.204 0.249-0.239v0l-1.023-1.238 1.187-1.254c0.129 0.131 0.404 0.393 0.826 0.783 0.422 0.391 0.82 0.74 1.193 1.047v0c0.655 0.54 1.259 1.018 1.813 1.433 0.554 0.415 0.908 0.673 1.062 0.775v0l-1.05 1.457-1.07-0.642c-0.167 0.048-0.503 0.173-1.007 0.375-0.505 0.201-0.902 0.386-1.192 0.552v0l-12.337 7.213-2.19-1.808z" fill="#5c58b6" data-fill-palette-color="primary"></path><path d="M150.563 46.605c-0.78 0.115-1.468 0.049-2.063-0.197-0.599-0.251-1.132-0.687-1.6-1.307v0c-0.672-0.891-0.953-1.783-0.842-2.677 0.102-0.895 0.585-1.668 1.45-2.321v0c1.537-1.16 3.098-0.977 4.684 0.55v0l2.559 2.448 0.563-0.425c0.641-0.484 1.012-0.94 1.114-1.368 0.111-0.427-0.036-0.909-0.442-1.446v0c-0.181-0.24-0.422-0.483-0.722-0.73-0.302-0.238-0.588-0.432-0.856-0.581v0l-0.896 0.455-0.826 0.66-1.177-1.429 3.099-2.818c0.602 0.494 1.215 1.046 1.838 1.655 0.614 0.608 1.082 1.125 1.405 1.552v0c0.983 1.303 1.436 2.547 1.359 3.735-0.073 1.192-0.668 2.209-1.783 3.051v0l-2.563 1.934c-0.406 0.307-0.834 0.666-1.284 1.079-0.454 0.417-0.742 0.691-0.863 0.824v0l0.766 1.274-1.579 0.996c-0.084-0.133-0.337-0.506-0.76-1.12-0.422-0.614-1.048-1.47-1.878-2.57v0zM152.13 42.798c-0.338-0.318-0.661-0.486-0.971-0.507-0.306-0.015-0.646 0.119-1.021 0.403v0c-0.797 0.602-0.928 1.257-0.394 1.965v0c0.256 0.339 0.592 0.551 1.009 0.638 0.421 0.091 0.862 0.032 1.325-0.179v0l1.391-1.05z" fill="#5c58b6" data-fill-palette-color="primary"></path><path d="M161.898 69.425l-1.771 0.584c-0.062-0.186-0.227-0.651-0.495-1.394-0.266-0.738-0.62-1.651-1.063-2.739v0c-0.177-0.435-0.359-0.837-0.545-1.206-0.186-0.368-0.306-0.605-0.363-0.708v0l1.548-0.769 0.797 1.177 1.032-0.347 0.98-0.347 3.373-1.375c0.623-0.254 1.069-0.602 1.34-1.044 0.273-0.436 0.294-0.938 0.063-1.506v0c-0.249-0.61-0.741-1.023-1.478-1.237-0.745-0.218-1.603-0.129-2.576 0.268v0l-1.651 0.673c-0.471 0.192-0.978 0.427-1.52 0.705-0.546 0.286-0.894 0.478-1.046 0.574v0l0.458 1.537-1.767 0.594c-0.064-0.192-0.229-0.657-0.495-1.395-0.268-0.744-0.623-1.657-1.064-2.739v0c-0.18-0.441-0.381-0.891-0.604-1.35-0.222-0.459-0.367-0.753-0.433-0.881v0l1.548-0.769 0.886 1.394c0.18-0.059 0.517-0.151 1.009-0.274 0.49-0.129 0.838-0.236 1.043-0.319v0l3.699-1.509c0.187-0.076 0.511-0.243 0.97-0.501 0.453-0.255 0.76-0.437 0.92-0.544v0l-0.305-1.864 1.758-0.484c0.046 0.2 0.167 0.609 0.363 1.226 0.192 0.627 0.368 1.136 0.529 1.53v0l0.492 1.078-0.239 0.658-1.53 0.889c0.915 0.205 1.687 0.532 2.314 0.981 0.627 0.449 1.109 1.085 1.443 1.906v0c0.51 1.251 0.553 2.341 0.128 3.269-0.425 0.928-1.3 1.662-2.624 2.201v0l-3.019 1.232c-0.471 0.192-0.977 0.43-1.517 0.713-0.548 0.28-0.898 0.468-1.049 0.566v0z" fill="#5c58b6" data-fill-palette-color="primary"></path><path d="M10.581 123.15l-0.19-0.483c-0.651-1.659-0.865-3.255-0.639-4.788 0.225-1.533 0.85-2.897 1.875-4.092 1.025-1.195 2.403-2.132 4.134-2.813v0c1.732-0.68 3.382-0.932 4.953-0.756 1.57 0.176 2.958 0.746 4.164 1.71 1.206 0.964 2.137 2.281 2.793 3.952v0c0.656 1.671 0.87 3.27 0.643 4.797-0.225 1.533-0.853 2.898-1.884 4.096-1.033 1.191-2.415 2.127-4.147 2.807v0c-1.865 0.733-3.635 0.968-5.308 0.707-1.674-0.261-3.117-0.981-4.331-2.16v0l-0.442 2.035c-0.031 0.188-0.059 0.851-0.081 1.989-0.031 1.134-0.05 1.899-0.056 2.295v0l-3.709-0.953zM17.408 115.167c-2.157 0.847-3.626 1.813-4.406 2.898-0.78 1.085-0.897 2.323-0.35 3.714v0c0.546 1.391 1.475 2.219 2.784 2.483 1.312 0.27 3.047-0.018 5.204-0.865v0c2.169-0.852 3.644-1.82 4.424-2.905 0.78-1.085 0.896-2.326 0.347-3.724v0c-0.546-1.391-1.475-2.219-2.785-2.483-1.31-0.264-3.049 0.03-5.218 0.882z" fill="#5c58b6" data-fill-palette-color="primary"></path><path d="M33.181 136.628c0.1 0.179 0.33 0.546 0.692 1.1 0.362 0.554 0.676 1.001 0.942 1.34v0l1.395 1.693-0.042 0.706c-0.297 0.192-0.892 0.598-1.784 1.217-0.887 0.615-1.535 1.084-1.946 1.407v0l-2 1.575c-0.405 0.319-0.833 0.689-1.283 1.109-0.451 0.43-0.736 0.712-0.854 0.847v0l0.804 1.274-1.576 1.053c-0.087-0.131-0.351-0.504-0.794-1.119-0.439-0.61-1.09-1.464-1.954-2.562v0l1.386-1.39c-0.818 0.037-1.543-0.065-2.174-0.308-0.636-0.238-1.195-0.663-1.675-1.273v0c-0.892-1.134-1.269-2.224-1.13-3.272 0.135-1.053 0.769-2.026 1.902-2.918v0l2.97-2.338c0.174-0.137 0.454-0.399 0.84-0.786 0.39-0.39 0.645-0.658 0.764-0.801v0l-0.557-1.294 1.58-0.969c0.1 0.179 0.316 0.528 0.649 1.047 0.333 0.518 0.635 0.95 0.906 1.293v0l1.165 1.401-0.048 0.698c-0.297 0.192-0.89 0.601-1.778 1.225-0.887 0.615-1.535 1.084-1.945 1.407v0l-2.101 1.653c-0.549 0.432-0.894 0.891-1.035 1.376-0.147 0.489-0.028 0.977 0.355 1.465v0c0.412 0.523 1.008 0.785 1.789 0.785 0.781 0 1.589-0.329 2.426-0.988v0l1.793-1.411c0.174-0.137 0.447-0.393 0.816-0.767 0.361-0.375 0.605-0.634 0.734-0.777v0l-0.812-1.729z" fill="#5c58b6" data-fill-palette-color="primary"></path><path d="M47.536 158.491c-1.256 1.661-2.645 2.615-4.168 2.864-1.531 0.25-3.085-0.222-4.663-1.415v0c-1.583-1.197-2.46-2.564-2.631-4.102-0.175-1.532 0.365-3.129 1.622-4.789v0c1.252-1.656 2.639-2.608 4.161-2.856 1.522-0.248 3.074 0.226 4.657 1.423v0c1.577 1.193 2.456 2.558 2.637 4.094 0.175 1.532-0.363 3.126-1.615 4.781zM44.365 156.093c0.921-1.218 1.449-2.202 1.583-2.952 0.143-0.751-0.096-1.361-0.715-1.83v0c-0.625-0.473-1.279-0.538-1.964-0.197-0.685 0.333-1.489 1.108-2.41 2.327v0c-0.921 1.218-1.453 2.208-1.595 2.968-0.143 0.751 0.098 1.363 0.723 1.836v0c0.62 0.469 1.271 0.532 1.956 0.19 0.685-0.333 1.493-1.113 2.422-2.342z" fill="#5c58b6" data-fill-palette-color="primary"></path><path d="M62.053 158.509c0.592 0.259 1.172 0.562 1.739 0.909 0.568 0.348 1.03 0.65 1.389 0.906 0.358 0.256 0.582 0.422 0.67 0.496v0l-2.104 3.911-1.916-0.923 0.564-1.217c0.143-0.408 0.243-0.72 0.303-0.937v0c-0.122-0.274-0.299-0.522-0.53-0.744-0.228-0.228-0.465-0.395-0.71-0.503v0c-0.748-0.327-1.44-0.234-2.077 0.279-0.643 0.51-1.27 1.464-1.882 2.864v0c-1.087 2.488-0.713 4.134 1.124 4.936v0c0.467 0.204 0.924 0.34 1.371 0.407 0.442 0.065 0.801 0.09 1.078 0.076 0.277-0.014 0.455-0.029 0.533-0.045v0l0.231 1.672c-0.808 0.267-1.635 0.383-2.481 0.347-0.849-0.029-1.642-0.204-2.378-0.526v0c-1.86-0.813-3.056-1.941-3.586-3.383-0.531-1.443-0.373-3.133 0.474-5.072v0c0.8-1.83 1.926-3.055 3.379-3.674 1.459-0.616 3.062-0.543 4.809 0.221z" fill="#5c58b6" data-fill-palette-color="primary"></path><path d="M97.218 160.822c-0.056 0.267-0.109 0.612-0.16 1.036-0.058 0.424-0.088 0.753-0.091 0.988v0l-0.087 6.834c-0.028 2.18-0.677 3.895-1.946 5.145-1.263 1.257-3.06 1.87-5.39 1.841v0c-2.33-0.03-4.107-0.689-5.331-1.978-1.224-1.282-1.822-3.013-1.794-5.193v0l0.077-6.09c0.007-0.555-0.009-1.097-0.047-1.626-0.045-0.529-0.093-0.912-0.142-1.148v0l-1.622-0.315 0.142-1.878c0.15 0.021 0.486 0.052 1.007 0.091 0.515 0.039 1.014 0.062 1.498 0.068v0c1.175 0.015 2.236 0.012 3.182-0.008 0.94-0.021 1.538-0.039 1.793-0.055v0l0.092 2.028-1.647 0.126c-0.035 0.15-0.084 0.466-0.149 0.948-0.071 0.482-0.109 0.841-0.112 1.076v0l-0.09 7.049c-0.015 1.162 0.296 2.122 0.932 2.881 0.63 0.765 1.519 1.155 2.668 1.17v0c1.266 0.016 2.175-0.312 2.726-0.983 0.551-0.678 0.834-1.67 0.85-2.976v0l0.081-6.305c0.009-0.731-0.054-1.656-0.19-2.774v0l-1.611-0.315 0.141-1.878c0.143 0.021 0.476 0.052 0.998 0.091 0.515 0.039 1.014 0.062 1.497 0.068v0c1.181 0.015 2.141 0.011 2.879-0.012 0.745-0.023 1.208-0.043 1.392-0.06v0l0.101 2.028z" fill="#5c58b6" data-fill-palette-color="primary"></path><path d="M113.14 163.994c0.013-0.214 0.001-0.49-0.035-0.826-0.042-0.334-0.083-0.605-0.122-0.811v0l-1.092 0.173-0.35-1.744c0.143-0.021 0.499-0.096 1.066-0.226 0.561-0.128 1.171-0.287 1.829-0.477v0c0.445-0.129 0.942-0.289 1.491-0.482 0.555-0.194 0.915-0.325 1.079-0.393v0l0.586 1.675-1.128 0.469c-0.066 0.243-0.135 0.637-0.21 1.182-0.066 0.549-0.113 1.008-0.142 1.376v0l-1.339 15.022-4.828 1.068-0.295-1.974 1.34-0.336c0.383-0.11 0.72-0.259 1.013-0.445v0c0.2-0.438 0.321-0.959 0.364-1.563v0l0.158-2.206-5.225-6.94c-0.808-1.058-1.369-1.741-1.683-2.052v0l-1.593 0.165-0.337-1.697c0.222-0.03 0.68-0.115 1.373-0.254 0.694-0.139 1.37-0.304 2.029-0.494v0c0.445-0.129 0.958-0.294 1.538-0.495 0.587-0.203 0.968-0.341 1.145-0.412v0l0.586 1.675-0.969 0.423c0.081 0.235 0.204 0.505 0.367 0.811 0.163 0.306 0.301 0.538 0.415 0.696v0l2.886 4.313z" fill="#5c58b6" data-fill-palette-color="primary"></path><path d="M129.864 149.987c-0.242-0.139-0.507-0.267-0.797-0.383-0.29-0.116-0.48-0.193-0.569-0.229v0l-1.3 0.778-1.023-1.428c0.123-0.076 0.392-0.263 0.805-0.562 0.409-0.294 0.759-0.562 1.052-0.802v0c0.912-0.751 1.744-1.456 2.494-2.116 0.75-0.66 1.23-1.089 1.44-1.287v0l1.248 1.332-1.098 1.208c0.062 0.076 0.197 0.214 0.405 0.415 0.212 0.206 0.401 0.359 0.567 0.459v0l8.094 5.272-3.624-9.395c-0.091-0.213-0.186-0.396-0.288-0.55-0.096-0.158-0.159-0.254-0.187-0.289v0l-1.425 0.78-1.023-1.428c0.159-0.105 0.473-0.33 0.941-0.674 0.469-0.344 0.893-0.672 1.271-0.983v0c0.665-0.548 1.257-1.056 1.776-1.525 0.519-0.469 0.845-0.771 0.979-0.906v0l1.248 1.331-0.85 0.94c0.016 0.173 0.074 0.531 0.174 1.075 0.105 0.539 0.212 0.971 0.32 1.297v0l4.782 13.653-2.223 1.829z" fill="#5c58b6" data-fill-palette-color="primary"></path><path d="M157.782 140.205c0.328 0.724 0.451 1.41 0.368 2.06-0.074 0.649-0.349 1.288-0.826 1.917v0c-0.682 0.9-1.474 1.422-2.377 1.566-0.898 0.147-1.784-0.11-2.657-0.772v0c-1.556-1.178-1.81-2.751-0.764-4.718v0l1.687-3.168-0.577-0.438c-0.645-0.489-1.191-0.726-1.636-0.71-0.445 0.015-0.875 0.296-1.289 0.842v0c-0.181 0.239-0.352 0.54-0.511 0.902-0.151 0.361-0.26 0.695-0.33 1.003v0l0.696 0.736 0.863 0.629-1.067 1.538-3.595-2.244c0.31-0.723 0.675-1.47 1.095-2.241 0.424-0.776 0.8-1.38 1.127-1.812v0c0.997-1.317 2.086-2.101 3.268-2.352 1.181-0.252 2.337 0.05 3.466 0.905v0l2.591 1.962c0.411 0.311 0.879 0.629 1.404 0.953 0.534 0.322 0.881 0.524 1.041 0.604v0l1.029-1.1 1.412 1.266c-0.109 0.122-0.405 0.475-0.888 1.059-0.479 0.579-1.141 1.425-1.984 2.539v0zM153.64 139.722c-0.217 0.417-0.293 0.781-0.226 1.094 0.07 0.307 0.293 0.603 0.667 0.886v0c0.807 0.611 1.482 0.557 2.026-0.161v0c0.26-0.343 0.377-0.73 0.35-1.16-0.032-0.434-0.213-0.849-0.543-1.246v0l-1.413-1.07z" fill="#5c58b6" data-fill-palette-color="primary"></path><path d="M170.39 115.3l1.7 0.835c-0.089 0.182-0.299 0.636-0.631 1.36-0.332 0.725-0.724 1.636-1.174 2.736v0c-0.181 0.441-0.335 0.861-0.463 1.26-0.126 0.393-0.206 0.649-0.242 0.769v0l-1.657-0.552 0.25-1.411-0.989-0.48-0.95-0.442-3.416-1.4c-0.634-0.26-1.206-0.328-1.715-0.205-0.503 0.125-0.872 0.475-1.107 1.049v0c-0.252 0.616-0.188 1.267 0.194 1.952 0.385 0.68 1.069 1.221 2.054 1.625v0l1.667 0.683c0.477 0.196 1.01 0.386 1.597 0.57 0.596 0.181 0.982 0.289 1.158 0.326v0l0.761-1.444 1.701 0.834c-0.089 0.182-0.299 0.636-0.632 1.36-0.332 0.725-0.724 1.636-1.174 2.736v0c-0.181 0.441-0.354 0.906-0.519 1.396-0.165 0.49-0.27 0.806-0.315 0.95v0l-1.665-0.534 0.347-1.646c-0.164-0.081-0.471-0.253-0.922-0.515-0.446-0.253-0.772-0.422-0.977-0.507v0l-3.742-1.533c-0.187-0.077-0.538-0.185-1.052-0.326-0.514-0.14-0.866-0.228-1.056-0.263v0l-1.104 1.558-1.622-0.897c0.107-0.175 0.313-0.556 0.617-1.144 0.304-0.588 0.538-1.081 0.701-1.48v0l0.408-1.124 0.632-0.302 1.749 0.431c-0.516-0.79-0.842-1.569-0.979-2.337-0.14-0.777-0.039-1.582 0.303-2.416v0c0.517-1.262 1.26-2.076 2.228-2.442 0.97-0.371 2.126-0.282 3.467 0.268v0l3.053 1.251c0.477 0.196 1.011 0.382 1.601 0.561 0.594 0.187 0.978 0.299 1.154 0.335v0z" fill="#5c58b6" data-fill-palette-color="primary"></path><path d="M3.867 90.61c0-3.766 3.053-6.819 6.819-6.819 3.766 0 6.819 3.053 6.818 6.819 0 3.766-3.053 6.819-6.818 6.819-3.766 0-6.819-3.053-6.819-6.819z" fill="#5c58b6" data-fill-palette-color="primary"></path><path d="M162.496 90.61c0-3.766 3.053-6.819 6.818-6.819 3.766 0 6.819 3.053 6.819 6.819 0 3.766-3.053 6.819-6.819 6.819-3.766 0-6.819-3.053-6.818-6.819z" fill="#5c58b6" data-fill-palette-color="primary"></path></g></svg></g></svg></g></svg></g><g></g></svg></g></svg></g></svg></g><defs></defs></svg><rect width="448" height="360" fill="none" stroke="none" visibility="hidden"></rect></g></svg></g></svg>